<?xml version="1.0" encoding="UTF-8"?>
<svg width="123px" height="124px" viewBox="0 0 123 124" version="1.1" xmlns="http://www.w3.org/2000/svg" xmlns:xlink="http://www.w3.org/1999/xlink">
    <title>AB866130-95F5-43BB-AE67-13774024DEA6</title>
    <defs>
        <polygon id="path-1" points="0.0219275666 0.903229508 39.8505201 0.903229508 39.8505201 68.913382 0.0219275666 68.913382"></polygon>
        <polygon id="path-3" points="0.00087656367 0.0388274007 122.985529 0.0388274007 122.985529 11.86935 0.00087656367 11.86935"></polygon>
    </defs>
    <g id="Page-1" stroke="none" stroke-width="1" fill="none" fill-rule="evenodd">
        <g id="APG-Benefits---Revised" transform="translate(-515.000000, -996.000000)">
            <g id="Icons" transform="translate(0.000000, 921.000000)">
                <g id="2" transform="translate(415.000000, 43.000000)">
                    <g id="Group-39" transform="translate(100.000000, 32.000000)">
                        <g id="Group-3" transform="translate(63.000000, 0.000000)">
                            <mask id="mask-2" fill="white">
                                <use xlink:href="#path-1"></use>
                            </mask>
                            <g id="Clip-2"></g>
                            <path d="M1.21207059,46.0199393 C1.21207059,46.0199393 20.5061882,12.2822344 22.5176,7.86259508 C24.5266,3.44536557 28.5470118,2.24044754 33.3705412,1.03552951 C38.1940706,-0.169388525 40.2030706,7.06011967 39.8003059,13.4871525 C39.3999529,19.9117754 36.9881882,31.9609557 36.5854235,34.3707918 C36.1826588,36.7806279 33.0907765,47.7694803 30.5560118,51.6420869 C28.0212471,55.5146934 25.1536588,67.6915951 25.1536588,67.6915951 L9.65324706,68.913382 C9.65324706,68.913382 -4.01181176,59.2740377 1.21207059,46.0199393" id="Fill-1" fill="#A6703C" mask="url(#mask-2)"></path>
                        </g>
                        <path d="M92.9693929,16.3111886 C94.0703461,16.54976 94.3852641,17.2654743 93.4405102,17.5040457 C92.4982757,17.7426171 85.2526434,17.9811885 83.6780536,17.9811885 C82.1059832,17.9811885 79.5866396,18.09952 80.0577568,17.7426171 C80.5313934,17.3838057 81.1612293,15 82.1059832,15 C83.0482177,15 92.9693929,16.3111886 92.9693929,16.3111886" id="Fill-4" fill="#E8CDAC"></path>
                        <path d="M87.9694355,28.3111886 C89.0703432,28.54976 89.3852481,29.2654743 88.4405333,29.5040457 C87.4983378,29.7426171 80.2530049,29.9811885 78.6784802,29.9811885 C77.1039555,29.9811885 74.584716,30.09952 75.0583331,29.7426171 C75.5294309,29.3838057 76.1592407,27 77.1039555,27 C78.0486704,27 87.9694355,28.3111886 87.9694355,28.3111886" id="Fill-6" fill="#E8CDAC"></path>
                        <path d="M81.9694355,38.3111886 C83.0703432,38.54976 83.3852481,39.2654743 82.4405333,39.5040457 C81.4983378,39.7426171 74.2530049,39.9811885 72.6784802,39.9811885 C71.1039555,39.9811885 68.584716,40.09952 69.0583331,39.7426171 C69.5294309,39.3838057 70.1592407,37 71.1039555,37 C72.0486704,37 81.9694355,38.3111886 81.9694355,38.3111886" id="Fill-8" fill="#E8CDAC"></path>
                        <path d="M48.1261921,25.7657698 C46.9930049,26.3459359 40.0478158,21.6272514 34.469048,27.6996569 C28.8902801,33.7720624 33.4136054,52.1053122 41.5650145,54.4598197 C46.9129043,56.0069294 48.2887491,53.5436407 48.6727605,53.8603147 C49.0591279,54.1745714 51.1817925,55.7047595 55.7993538,54.6121133 C60.4145591,53.5170497 68.5424092,39.225624 63.2981789,29.2298451 C60.5464894,23.9769242 54.6638106,22.4153104 48.1261921,25.7657698" id="Fill-10" fill="#AA4A4D"></path>
                        <path d="M48.0368763,30 C48.0208222,28.1022097 47.5025045,17.3947506 50.9289061,13.2303496 C51.4632779,12.42268 53.3117918,13.9376442 53.9860636,14.7173022 C54.2566897,15.0300991 50.5206735,16.7154677 48.4565761,30 L48.0368763,30 Z" id="Fill-12" fill="#8DB9B4"></path>
                        <path d="M49.9870739,28.105803 C50.3994601,29.434118 40.8418041,30.8148038 36.0096084,20.0549761 C35.6384609,19.3598722 46.1203471,15.6463033 49.9870739,28.105803" id="Fill-14" fill="#8DB9B4"></path>
                        <path d="M47.5177084,28.9999185 C47.4020845,28.9953591 47.2864606,28.9520451 47.1984858,28.8654169 L46.9923736,28.6648044 C43.5513053,25.2338736 41.6007801,23.6791263 37.9334911,22.1129805 C35.7014468,21.1600708 34.9875948,21.1669099 35.0001626,21.0141707 C35.0051897,20.9298223 36.5158413,21.2466989 36.7671977,21.3150896 C40.7612499,22.4708915 44.1143435,24.4906953 47.6710358,28.0356104 L47.8645801,28.2293839 C48.0455567,28.4049199 48.0455567,28.6921606 47.8620666,28.8676966 C47.7665512,28.9566044 47.640873,29.0021982 47.5177084,28.9999185" id="Fill-16" fill="#609666"></path>
                        <path d="M45.0281887,29.1690807 L45.1134851,29.1271666 C45.164663,29.1092035 45.2913891,29.0872485 45.4010559,29.0792649 C45.6398858,29.0593058 45.9615752,29.0752731 46.3173831,29.1331543 C46.495287,29.1690807 46.6829392,29.2030111 46.8705913,29.2648842 C47.0582434,29.3267572 47.2385844,29.4345362 47.4384217,29.5263479 C47.8186,29.7259385 48.3425637,29.7858157 48.7276161,29.5822332 C48.9079571,29.4844338 49.0273721,29.3706672 49.1955279,29.2529087 C49.3539355,29.1351502 49.505032,29.0094082 49.6561285,28.8796743 C49.9583215,28.6281901 50.3019442,28.4066445 50.648004,28.2489679 C50.9867526,28.0912913 51.3352494,28.0074632 51.5838275,28.0014755 C51.8324056,27.991496 51.9640058,28.0354059 51.9640058,28.0354059 C51.9908133,28.0433896 52.0054355,28.0673404 51.9981244,28.0892954 C51.9932503,28.0992749 51.9835021,28.1072586 51.9786281,28.1132463 C51.9810651,28.119234 51.8665242,28.1731235 51.7203018,28.2908819 C51.5740793,28.4046486 51.3913013,28.5723047 51.1719677,28.7898585 C50.9477599,28.9994286 50.6796855,29.2588964 50.2995072,29.4904216 C50.109418,29.6061841 49.8973955,29.7179549 49.6610026,29.821742 C49.4416689,29.9255291 49.1224166,29.9893981 48.8372829,29.9973817 C48.5618973,30.013349 48.298697,29.9514759 48.0549929,29.9414964 C47.8112889,29.9215373 47.5700219,29.9135537 47.3214438,29.9335127 C47.0826138,29.9395004 46.8413468,29.9534718 46.6317613,29.9155496 C46.4221758,29.8816192 46.2369608,29.8157543 46.071242,29.7598689 C45.7373675,29.6341268 45.4839153,29.4984052 45.3108854,29.3986099 C45.2158408,29.3487122 45.1792852,29.31079 45.1183592,29.2848432 C45.0623073,29.2588964 45.0306257,29.2449251 45.0306257,29.2449251 C45.0038183,29.2349456 44.9916331,29.2089988 45.0062553,29.1870438 C45.0111294,29.1790602 45.0184405,29.1730725 45.0281887,29.1690807" id="Fill-18" fill="#A02231"></path>
                        <path d="M90.103859,46.8378773 C91.4428982,44.2504212 93.0286655,41.4927377 95.7067437,40.4203052 C97.1703447,39.8342367 98.7776707,39.8439639 100.31553,40.0531004 C101.891715,40.2646687 102.734903,40.2646687 103.614021,38.7423496 C104.152991,37.7988036 104.696751,36.8552576 105.238115,35.9117115 C105.472866,35.5055976 105.772294,35.0532792 106.232214,35.0046428 C106.450197,34.9803246 106.665785,35.055711 106.871791,35.1335292 C109.154625,35.9749388 111.341643,37.078985 113.382539,38.4164858 C113.514288,38.5015995 113.648431,38.5940086 113.737061,38.7253269 C113.962231,39.0584862 113.813715,39.5083728 113.662803,39.8828731 C113.327445,40.7048281 111.806354,43.2047387 112.213575,44.0048074 C112.433954,44.4401031 113.372958,44.751376 113.756225,45.0334671 C114.288008,45.4249901 114.791046,45.8748767 115.155149,46.4341953 C116.685822,48.703083 115.857007,51.7793349 114.865304,54.3376092 C113.061553,58.9823848 110.884118,63.4666602 108.706682,67.9436402 C107.300571,70.8375057 105.892065,73.7338029 104.485954,76.6276683 C102.893,79.9057612 101.065296,83.4197406 97.7931536,84.9396279 C96.6241892,85.4867874 95.3378492,85.7299693 94.0563001,85.8710149 C90.178117,86.2941515 86.0723691,85.7178102 82.828972,83.5218771 C80.5437424,81.9752397 78.6609432,79.4874882 78.1219739,76.7152138 C77.5039559,73.5319619 79.3771734,70.4800282 80.5389515,67.62264 C83.4110588,60.5509084 86.6041521,53.6129269 90.103859,46.8378773" id="Fill-20" fill="#FFD176"></path>
                        <path d="M107.117648,36.0679333 C107.865565,36.5266633 108.783464,36.887094 109.17782,37.101336 C110.238502,37.6709677 111.296918,38.2405995 112.357601,38.8127517 C112.951402,39.1328545 114.571889,40.3603353 115.269945,39.8965644 C115.417262,39.7957446 115.510185,39.624351 115.596309,39.4605188 C116.477944,37.794472 115.838815,37.0358031 114.422305,36.1208636 C113.393353,35.4579736 112.255612,35.0168871 111.183598,34.4875832 C110.397151,34.1019476 109.615238,33.7112709 108.831058,33.3256353 C107.589063,32.7131551 106.523847,32.9072332 106.066031,34.4018864 C106.018437,34.5657186 105.977641,34.7446737 106.013904,34.9135468 C106.100027,35.3369899 106.562376,35.7276665 107.117648,36.0679333" id="Fill-22" fill="#776455"></path>
                        <path d="M60.759687,87.3813762 C60.0480198,82.821613 58.0034643,78.5985411 55.9850904,74.4548322 C51.0605439,64.349281 46.1359975,54.2437298 41.211451,44.1381786 C39.2930438,40.1988894 36.8200598,35.8122818 32.5619575,34.9513138 C29.5748595,34.3476743 26.5139766,35.7136793 23.4816555,35.451541 C22.1106846,35.333699 21.6370332,33.1283705 21.0253327,31 C19.2140326,32.678647 16.7458089,33.7632742 13.6230419,33.8402323 C14.8488232,35.9565781 17.3003857,37.9671066 16.9505025,40.6269685 C16.7410486,42.1973933 15.4129206,43.3229044 14.4370559,44.5614477 C12.2354099,47.3583911 11.6808331,51.1918629 12.1592449,54.7295273 C12.6400367,58.2695967 14.0490902,61.6004364 15.4414825,64.8855823 C18.8332073,72.8651679 22.0511807,80.9265215 25.7023427,88.79548 C27.9611125,93.6582655 29.4867937,99.0477324 32.7856924,103.350167 C36.9771502,108.818997 41.6922428,106.931121 47.6878603,105.39677 C51.3104605,104.468464 55.0139861,103.136128 57.5536144,100.365639 C60.6597204,96.9770805 61.4713542,91.9411394 60.759687,87.3813762" id="Fill-24" fill="#FBFEFF"></path>
                        <path d="M16.7031941,36.8235295 C18.1433836,36.3785042 19.5093605,35.6750773 20.7153163,34.7515303 C21.3136559,34.2921495 21.9143147,33.7059603 21.9908465,32.9427182 C22.0557826,32.3278177 21.7635702,31.7440212 21.4829535,31.2008991 C21.1582731,30.5764282 20.8312736,29.9519573 20.5089123,29.3274865 C20.2885935,28.9016021 20.0474023,28.4589695 19.6485092,28.2101382 C19.0617653,27.8488543 18.3080429,28.0163369 17.6586821,28.2436347 C16.0793438,28.7987199 14.6229203,29.6169921 13.1827307,30.4711534 C12.5055402,30.8731117 11.9187963,31.3037812 12.009243,32.2368986 C12.0393919,32.564686 12.1646257,32.8757251 12.2875405,33.1795864 C13.171135,35.3496825 13.9758786,37.6633351 16.7031941,36.8235295" id="Fill-26" fill="#65A8DF"></path>
                        <path d="M88.0903134,79.7811905 C88.0903134,80.8777381 87.1816487,81.7760119 86.072147,81.7760119 C84.6344484,81.7760119 82.4497342,81.826627 81.5851556,80.3766667 C80.9875432,79.3817857 81.2667556,77.5735714 81.2667556,76.4503968 C81.2692048,75.1989286 81.408811,73.9547222 81.408811,72.703254 L81.408811,56.5455159 C81.1173525,54.7179365 81.7835433,52.3989683 83.7821159,51.784127 C84.8352853,51.4573413 86.0305101,51.7913889 86.8607994,52.5078968 C88.4944366,53.919127 88.0903134,55.9911905 88.0903134,57.9059127 L88.0903134,65.6664683 L88.0903134,79.7811905 Z M84.9406022,47.4463492 C83.3657466,47.4463492 81.9378449,48.0611905 80.857734,49.0439683 C81.5386202,48.4242857 79.1506199,44.0719841 78.6509768,43.3845238 C76.8507919,40.9178968 73.4635053,39.2984921 70.3505325,38.4415873 C70.3480833,38.310873 70.3505325,38.1801587 70.3456341,38.0542857 C70.2697079,36.3671032 70.1888833,34.6847619 70.1129571,33 C70.1619417,34.0069841 62.2827653,34.0505556 61.4769682,33.9779365 C60.7177066,33.9077381 56.5221737,33.7552381 56.5221737,34.4209127 L56.5221737,38.4657937 C52.0008931,40.0174206 48.6576926,43.4644048 47.0950832,48.3565079 C46.0149722,51.7236111 46.3284738,54.9188492 46.0933476,58.3561508 C45.789643,62.8149603 46.3333723,67.2640873 46.2280554,71.7228968 C46.1227384,76.1502381 45.8435261,80.6501984 47.6706525,84.8185317 C50.0831451,90.313373 55.7114782,94 61.7782237,94 L66.3166489,94 C73.0495852,94 78.7954814,89.6549603 80.8601832,83.6663095 C81.9378449,84.6490873 83.3657466,85.2639286 84.9406022,85.2639286 C88.2740058,85.2639286 91,82.5673413 91,79.2728571 L91,53.4374206 C91,50.1429365 88.2740058,47.4463492 84.9406022,47.4463492 L84.9406022,47.4463492 Z" id="Fill-28" fill="#D9924E"></path>
                        <path d="M70,27.8522288 L70,34.6783573 C70,34.7956215 69.9490291,34.8249376 69.9490291,34.9422018 C66.4878641,36.2478933 62.6092233,36.0810174 58.8834951,35.8149179 C57.8592233,35.7405002 56.7475728,35.5713692 56,34.9151408 L56,28.4385498 C56.0097087,28.3776626 56.0121359,28.3167754 56.0242718,28.2558882 C56.3737864,27.9063508 56.8616505,27.7642807 57.3567961,27.6447614 C61.5558252,26.6435057 65.7961165,26.8825443 70,27.8522288" id="Fill-30" fill="#5B4144"></path>
                        <path d="M74.6538517,53.1540869 C74.6185196,53.1308353 74.5831875,53.1099088 74.540789,53.0936327 C74.1544915,52.9215706 73.6315767,53.0308533 73.22408,53.0750314 C72.3007348,53.1726882 71.3773897,53.2587192 70.4540445,53.3331244 C68.666241,53.4796097 66.8454609,53.6377207 65.0482355,53.6377207 C62.5537904,53.7167763 60.0569897,53.712126 57.5625445,53.6237698 C56.7310628,53.5935427 55.8972256,53.5563401 55.0657438,53.5075116 C54.3190591,53.4656587 53.5865072,53.5447142 52.8445335,53.4284561 C52.712627,53.4075296 52.5595213,53.3889283 52.453525,53.4610084 C52.373439,53.5144871 52.3428178,53.6051685 52.3239741,53.6911995 C52.1567355,54.3538709 52.2321106,55.0723461 52.1920676,55.7466433 C52.1473136,56.4837199 52.1049151,57.2184713 52.0578057,57.9532227 C52.0130517,58.743778 51.9635868,59.5389836 52.0389619,60.3295389 C52.074294,60.7062153 52.1426027,61.0945175 52.3710835,61.4177151 C52.6184081,61.7664895 53.0282603,62.0129567 53.4663781,62.1617671 C53.9539609,62.3268537 54.4297663,62.3803324 54.9409038,62.3942834 C55.5415493,62.4082344 56.163394,62.5663454 56.7593284,62.6407507 C58.0147952,62.7988617 59.2773284,62.903494 60.542217,62.9592979 C64.3039063,63.117409 68.0962167,62.8151379 71.7589762,62.0478342 C72.6352119,61.8641463 73.5703344,61.6176791 74.1050266,60.98756 C74.5337226,60.4760242 74.6161641,59.8110277 74.6844728,59.1832337 C74.8517113,57.6416509 75.0189499,56.0954177 74.9953952,54.5445342 C74.9883287,54.1306552 75.0849031,53.4470574 74.6538517,53.1540869" id="Fill-32" fill="#FCFCFC"></path>
                        <path d="M116.873201,72.6378601 C112.58676,72.3138316 108.220537,72.6378601 103.929261,72.6378601 L62.7160831,72.6378601 L20.34003,72.6378601 C19.9991456,72.6378601 19.6123263,72.6112607 19.206166,72.577407 L20.2022257,72.1566536 L15.5628118,72.1566536 C14.0058642,71.9922213 12.3933113,71.907587 10.9620799,72.1566536 L7.28004383,72.1566536 C6.47497618,72.0816918 5.85123008,72.9207805 5.09935009,73.3221889 C4.41032823,75.2131609 7.50246492,84.7623281 8.30753256,87.3811552 C9.92008547,92.6139731 12.1950664,97.3583302 13.9961937,102.455733 C15.6450109,107.12271 17.351851,111.900921 20.0740918,115.412035 C29.4061071,127.459124 47.3786983,123.309625 58.9397598,123.309625 L84.793794,123.309625 C91.5510434,123.309625 96.9326668,124.438888 102.766385,118.700683 C111.972684,109.644812 116.462206,92.8630398 119.447967,78.1947064 C120.55282,72.7708568 120.146659,72.8893449 116.873201,72.6378601" id="Fill-34" fill="#BCB0A6"></path>
                        <g id="Group-38" transform="translate(0.000000, 65.000000)">
                            <mask id="mask-4" fill="white">
                                <use xlink:href="#path-3"></use>
                            </mask>
                            <g id="Clip-37"></g>
                            <path d="M121.537988,10.6044106 C120.621518,11.4110015 119.369812,11.8155773 118.009576,11.8386227 C114.194165,11.9077591 110.371518,11.8386227 106.556106,11.8386227 L43.3413412,11.8386227 C35.4645176,11.8386227 27.5876941,11.5671985 19.7108706,11.2957742 C15.6494588,11.1549409 11.6049294,11.9999409 7.53145882,11.6312136 C3.80528235,11.2957742 -2.72095294,8.77869848 1.22710588,2.56666818 C3.42422353,-0.89015 10.5389294,0.185304545 13.5994588,0.236516667 C18.7678706,0.323577273 23.9218118,0.810092424 29.0878118,0.96885 C58.4655176,1.87530455 87.8118706,1.97260758 117.223341,2.40535 C118.595635,2.42583485 120.040282,2.46424394 121.231694,3.22474394 C123.575929,4.72013788 123.462576,8.90672879 121.537988,10.6044106" id="Fill-36" fill="#998675" mask="url(#mask-4)"></path>
                        </g>
                    </g>
                </g>
            </g>
        </g>
    </g>
</svg>