<?xml version="1.0" encoding="UTF-8"?>
<svg width="164px" height="139px" viewBox="0 0 164 139" version="1.1" xmlns="http://www.w3.org/2000/svg" xmlns:xlink="http://www.w3.org/1999/xlink">
    <title>8B274F63-9388-4C76-8C2F-E94A64D7D8CB</title>
    <defs>
        <polygon id="path-1" points="0.234 0.375818182 26.7588 0.375818182 26.7588 25.2202364 0.234 25.2202364"></polygon>
    </defs>
    <g id="Page-1" stroke="none" stroke-width="1" fill="none" fill-rule="evenodd">
        <g id="APG-Benefits---Revised" transform="translate(-139.000000, -964.000000)">
            <g id="Icons" transform="translate(0.000000, 921.000000)">
                <g id="1" transform="translate(55.000000, 23.000000)">
                    <g id="Group-28" transform="translate(84.000000, 20.000000)">
                        <path d="M129.715724,86.8608734 C125.951355,81.0193046 120.157983,76.9635252 114.607706,72.8358348 C114.605299,72.8334378 114.600485,72.8286437 114.595671,72.8262467 C114.533092,72.7807031 114.470513,72.7327624 114.410341,72.6872188 C114.239452,72.5601761 114.07097,72.4331333 113.902488,72.3060906 C113.565524,72.0520051 113.230967,71.7979197 112.898817,71.5390401 C112.229703,71.0260751 111.572623,70.505919 110.920357,69.9713807 C110.61709,69.7244864 110.316229,69.4727979 110.017776,69.2187124 C109.858921,69.0844786 109.700067,68.9478477 109.543619,68.8112169 C109.507516,68.7776584 109.456971,68.7369089 109.40402,68.6937623 C112.569074,66.7066221 115.683583,64.6691443 118.680155,62.4423009 C122.2616,59.7863886 125.705853,56.9674781 128.97681,53.9592021 C129.605007,53.3863112 129.74942,52.4346892 129.424491,51.686815 C129.063458,50.8670298 128.338985,50.5026809 127.458065,50.4091966 C119.534599,49.5510589 111.56781,49.0812404 103.596206,49.0093295 C95.6582986,48.9398155 87.7155776,49.2586209 79.8113667,49.9705396 C75.3490016,50.3732411 70.9010778,50.9029853 66.4724091,51.5429931 C66.3713199,51.5310079 66.265417,51.5262138 66.159514,51.5310079 C65.069195,51.5765515 63.9114833,52.4514685 64.0053518,53.6116323 C64.6744659,61.8430427 65.1077052,70.0960264 65.3098836,78.3514072 C65.3676488,80.6981022 65.4037521,83.0424002 65.4230072,85.3890953 C65.4326347,86.5133036 66.4002025,87.4673227 67.5771694,87.4697197 C75.4115806,87.4817049 83.2435849,87.6111446 91.0755893,87.8724212 C98.9388831,88.1289037 106.79977,88.5124289 114.648623,89.0205999 C119.055629,89.3058468 123.457822,89.6294462 127.860015,89.9937952 C129.491883,90.125632 130.531658,88.1265067 129.715724,86.8608734" id="Fill-1" fill="#4B8767"></path>
                        <path d="M90.820019,59.0181011 C90.7169539,57.1469524 90.5670411,55.2781603 90.3538839,53.4187946 C90.2367645,52.3842427 90.1055908,51.3473341 89.955678,50.3198519 C89.8338738,49.4761854 89.7542327,48.5806734 89.4942277,47.7747126 C89.1592663,46.7401606 88.5197945,45.8493619 87.5851819,45.3992493 C86.7442648,44.9915557 85.8916357,44.8713685 84.9781046,44.7912438 C83.2611346,44.6404207 81.546507,44.5131638 79.829537,44.4071163 C72.9030972,43.9711434 65.955576,43.8863054 59.022109,44.1478891 C55.5811419,44.2775027 52.1448594,44.4943109 48.7156042,44.7936004 C47.0080037,44.9420669 45.0310287,44.9797726 43.7989329,46.4997864 C42.536386,48.050436 42.548098,50.2279441 42.3981852,52.1862874 C41.9226805,58.4548712 41.8734904,64.7611607 42.2482724,71.039171 C42.2201637,72.9786614 42.2201637,74.9181518 42.2482724,76.8576422 C42.2646691,78.1302118 42.2740386,79.4051381 42.3325983,80.6753511 C42.4028699,82.2613499 42.8877441,83.7931467 44.3212853,84.4529977 C45.4292346,84.9643821 46.7269172,84.8536214 47.9074805,84.886614 C49.0880438,84.9172499 50.2686071,84.9431726 51.446828,84.9620255 C53.8102969,84.9973747 56.1714235,85.0091577 58.5325501,84.9926615 C63.2548032,84.9620255 67.9770564,84.8229855 72.6969671,84.5802546 C78.0165291,84.3045312 83.3337486,83.8921244 88.6369138,83.3477474 C89.6886458,83.2393433 90.4522641,82.497011 90.5084814,81.3022095 C90.8692091,73.8859564 91.225252,66.441424 90.820019,59.0181011" id="Fill-3" fill="#539675"></path>
                        <path d="M25.6752883,134.999836 C23.9756154,135.022657 23.356021,132.652604 24.8273237,131.756092 L39.297006,122.939302 C41.3691844,121.677665 43.9243094,121.702115 46.1874201,122.921372 C46.2286016,122.942562 46.2697831,122.967012 46.3072208,122.993093 L59.2101342,131.337176 C60.6196647,132.249989 60.0225329,134.53528 58.3677853,134.5581 L25.6752883,134.999836 Z" id="Fill-5" fill="#A5A5A5"></path>
                        <path d="M41.5,129 L41.5,129 C40.6746495,129 40,128.220647 40,127.271693 L40,45.7303261 C40,44.7793534 40.6746495,44 41.5,44 C42.3253505,44 43,44.7793534 43,45.7303261 L43,127.271693 C43,128.220647 42.3253505,129 41.5,129" id="Fill-7" fill="#A5A5A5"></path>
                        <path d="M64.086672,139 L21.913328,139 C20.3120511,139 19,137.648915 19,136 C19,134.351085 20.3120511,133 21.913328,133 L64.086672,133 C65.6898643,133 67,134.351085 67,136 C67,137.648915 65.6898643,139 64.086672,139" id="Fill-9" fill="#A5A5A5"></path>
                        <polygon id="Fill-11" fill="#6CB476" points="13.4987784 62 17.6717944 70.2294739 27 71.5495196 20.2518324 77.9547141 21.8448104 87 13.4987784 82.7306631 5.15518958 87 6.74816759 77.9547141 0 71.5495196 9.32820559 70.2294739"></polygon>
                        <polygon id="Fill-13" fill="#6CB476" points="52.5012216 2 56.6717944 10.228691 66 11.5486111 59.2518324 17.9531963 60.8448104 27 52.5012216 22.728691 44.1551896 27 45.7481676 17.9531963 39 11.5486111 48.3282056 10.228691"></polygon>
                        <g id="Group-17" transform="translate(97.000000, 0.000000)">
                            <mask id="mask-2" fill="white">
                                <use xlink:href="#path-1"></use>
                            </mask>
                            <g id="Clip-16"></g>
                            <polygon id="Fill-15" fill="#6CB476" mask="url(#mask-2)" points="13.4964 0.373690909 17.5956 8.55423636 26.7588 9.86605455 20.13 16.2313273 21.6948 25.2202364 13.4964 20.9775091 5.3004 25.2202364 6.8652 16.2313273 0.234 9.86605455 9.3996 8.55423636"></polygon>
                        </g>
                        <polygon id="Fill-18" fill="#6CB476" points="150.5 60 154.672638 68.2294739 164 69.5495196 157.252443 75.9547141 158.845277 85 150.5 80.7306631 142.157166 85 143.75 75.9547141 137 69.5495196 146.329805 68.2294739"></polygon>
                        <path d="M72.6811586,53.5139731 C74.4694851,53.362523 74.4123641,50.3287123 72.6723707,50.1027391 C67.9906461,49.5017465 63.453921,49.2084621 58.8315144,48.0329206 C57.8736392,47.7877156 56.7993251,48.9584492 57.032203,50.0113882 C58.6074243,57.0790612 58.394319,64.8318658 59.0402257,72.0654127 C59.1720434,73.5150069 61.1185511,73.1736431 61.0636271,71.7601085 C60.951582,69.0099664 60.7099163,66.197321 60.4858262,63.3774637 C62.0171083,63.9544166 63.8999041,63.9856682 65.4663376,64.2164494 C67.371103,64.4977139 69.2802624,64.8679253 71.1960127,65.0241834 C73.0260815,65.1732296 73.4083528,62.2067301 71.57389,61.9206576 C69.1264751,61.5408303 66.6263331,61.4422675 64.1635395,61.2211022 C63.113392,61.1273474 61.8457453,60.8484868 60.727492,60.9662814 C60.7230981,60.9638774 60.7209011,60.9638774 60.7187041,60.9614734 C60.5802956,60.9013742 60.4484779,60.918202 60.3144632,60.9374337 C60.1057519,57.9348747 59.9607525,54.9323157 60.0947671,51.9850479 C64.1964939,53.1004902 68.4871594,53.8721647 72.6811586,53.5139731" id="Fill-20" fill="#FFFFFF"></path>
                        <path d="M81.7379979,63.4592743 C81.1409613,62.974473 79.7160029,63.2345028 79.0769872,63.4658852 C78.3446845,63.7281187 77.6776827,64.1027379 77.0549922,64.5280408 C76.985027,64.2327528 76.9290548,63.9352611 76.8497609,63.6377693 C76.5419139,62.4874681 72.7474666,63.0560078 73.0133344,64.058665 C73.4517832,65.6981749 73.7223154,67.3464994 73.8622458,69.0080457 C73.6173675,70.0724049 73.6033745,71.1984661 73.9601971,72.3421565 C74.3030267,73.4373667 77.7569766,73.0737657 77.7989558,71.9234645 C77.8362705,70.8194397 77.7942914,69.7286367 77.7056688,68.642241 C78.1254601,66.8749199 79.3078724,65.2882974 81.1829404,64.6139829 C81.7776448,64.4024332 82.3490275,63.9572975 81.7379979,63.4592743" id="Fill-22" fill="#FFFFFF"></path>
                        <path d="M86.0211898,65.9231833 C86.5218088,65.4554878 87.0763739,65.203823 86.7397507,66.11917 C86.4678628,66.8541201 85.7665646,67.3864022 85.030741,67.7004263 C85.0501616,67.6447483 85.0674243,67.5868431 85.084687,67.5378464 C85.2810505,66.9877474 85.5896217,66.3307465 86.0211898,65.9231833 M88.7249641,71.0767426 C87.6870427,71.4976686 86.2650258,71.7894215 85.2594721,71.0566985 C85.0113204,70.8763017 84.8559559,70.6402268 84.7566952,70.3796536 C87.1367934,69.9453649 90.3001877,68.2237999 90.4922355,65.4866675 C90.7317558,62.1125783 85.7039873,62.7896232 84.0079246,63.9365909 C81.9730809,65.3196334 80.1432321,69.2460487 81.4271472,71.6758383 C82.9182151,74.4953743 87.4842057,74.3394757 89.9376705,73.3484066 C92.1170894,72.4664665 90.5548129,70.3373383 88.7249641,71.0767426" id="Fill-24" fill="#FFFFFF"></path>
                        <path d="M97.3083126,67.0063301 C97.160055,66.7088942 97.2907227,66.7317739 97.7003157,67.0749691 C98.0119078,67.3063081 98.2229864,67.6062861 98.3335514,67.9825297 C98.5521685,68.7553543 98.0747288,69.6324087 97.6877515,70.2730397 C97.5746737,70.4586193 96.295638,72.309331 95.99661,72.2432342 C95.7604031,72.1898482 95.494042,72.1491733 95.2226553,72.131378 C95.2779378,71.1348409 95.5241961,70.1332194 95.8785065,69.2485385 C96.1046622,68.6765466 96.6549742,67.1639456 97.3083126,67.0063301 M102.866715,73.549918 C101.944503,73.3948446 100.816237,73.6160148 100.077462,74.2083443 C99.3763801,74.7701675 97.9717024,76.1582013 96.9514893,75.9446576 C96.1046622,75.7641624 95.6121455,74.7803362 95.3910156,74.0125959 C98.5973996,73.8397272 101.94199,71.9229187 102.454609,68.4807982 C103.072768,64.3116124 96.6650255,64.4819389 94.3959309,65.928443 C91.516216,67.7639016 89.6592272,73.549918 92.1997086,76.3564918 C95.3734257,79.8647091 100.88911,77.0098338 103.751235,74.7066128 C104.510112,74.0990303 103.334103,73.6261836 102.866715,73.549918" id="Fill-26" fill="#FFFFFF"></path>
                    </g>
                </g>
            </g>
        </g>
    </g>
</svg>