<?xml version="1.0" encoding="UTF-8"?>
<svg width="121px" height="101px" viewBox="0 0 121 101" version="1.1" xmlns="http://www.w3.org/2000/svg" xmlns:xlink="http://www.w3.org/1999/xlink">
    <title>A4729B11-1623-4B9B-933A-8A83DCABC6AA</title>
    <defs>
        <polygon id="path-1" points="0.86409211 0.375582437 107.85621 0.375582437 107.85621 100.662462 0.86409211 100.662462"></polygon>
    </defs>
    <g id="Page-1" stroke="none" stroke-width="1" fill="none" fill-rule="evenodd">
        <g id="APG-Benefits---Revised" transform="translate(-512.000000, -1340.000000)">
            <g id="Icons" transform="translate(0.000000, 921.000000)">
                <g id="5" transform="translate(415.000000, 375.000000)">
                    <g id="Group-6" transform="translate(97.000000, 44.000000)">
                        <g id="Group-3" transform="translate(13.000000, 0.000000)">
                            <mask id="mask-2" fill="white">
                                <use xlink:href="#path-1"></use>
                            </mask>
                            <g id="Clip-2"></g>
                            <path d="M101.026302,64.2126392 C91.0782419,67.1208012 81.9886659,69.0230357 73.679922,70.18802 C77.2368064,64.0019963 79.8942239,56.994895 80.5262234,49.2913825 C80.8627146,45.1730985 80.5844623,41.0806074 79.7346063,37.0225071 C85.4355435,35.6511787 91.2594295,33.7510935 97.1350832,31.2255279 C97.2105781,31.339447 97.2882299,31.4469179 97.3637247,31.5629864 C104.048252,41.7103868 105.24107,53.4161148 101.12121,64.5372013 L101.026302,64.2126392 Z M94.5402185,76.3418025 C83.4597363,90.7944862 65.4272599,98.4915505 50.0673001,95.7961809 C55.082313,92.1013321 63.8138278,84.8470478 70.6730713,74.9532788 C79.2471255,73.9129607 88.7033906,72.0623122 99.0569656,69.199288 C97.8059086,71.6302792 96.3175822,74.022581 94.5402185,76.3418025 L94.5402185,76.3418025 Z M47.7765716,75.9506085 C49.4719695,76.0215393 51.1824664,76.081723 52.9792431,76.081723 C56.7000591,76.081723 60.6646155,75.9033213 64.8254584,75.5551157 C58.4493818,83.7357989 51.0206918,89.7455705 46.9202027,92.7504562 C46.9159307,88.7675855 47.2437939,82.8652848 47.7765716,75.9506085 L47.7765716,75.9506085 Z M32.6409392,34.0756556 C36.1611547,25.7724555 42.0217096,17.8411047 50.2204467,10.3525339 C49.5560923,15.9517667 48.4754379,25.2028599 47.3322307,35.7070635 C42.0281805,35.4426851 37.0908195,34.8451471 32.6409392,34.0756556 L32.6409392,34.0756556 Z M28.3183217,33.2416816 C19.8564312,31.4619638 13.6033033,29.2265696 10.5942956,28.0314934 C18.2149581,13.3918104 37.6192832,8.19236929 48.1626737,6.42554805 C38.7711184,14.8125754 32.1469874,23.7799455 28.3183217,33.2416816 L28.3183217,33.2416816 Z M53.2165125,40.1391625 C60.2289025,40.1391625 67.7460293,39.513682 75.5435655,37.9596531 C76.3006706,41.598617 76.5379401,45.2569257 76.2402748,48.9259815 C75.5780774,57.0679752 72.3512132,64.479167 68.1774283,70.8693854 C60.8263901,71.6431757 54.1418632,71.8258762 48.1281618,71.5636473 C48.9456628,61.755855 50.0759281,50.5186999 51.1910944,40.0983236 C51.8683907,40.1090707 52.5305881,40.1391625 53.2165125,40.1391625 L53.2165125,40.1391625 Z M55.0413301,6.25359465 C64.9613491,15.2381601 71.4431184,24.457012 74.4283992,33.8069784 C66.4367335,35.3782026 58.7621461,35.9392006 51.6505343,35.8446262 C53.2121985,21.5123099 54.648757,9.50566342 55.0413301,6.25359465 L55.0413301,6.25359465 Z M94.6545392,27.63815 C89.2555813,29.9079349 83.9062342,31.6253196 78.6647369,32.8805794 C75.6772991,23.2511887 69.3486765,13.8216939 59.6939678,4.68881866 C66.0204335,4.25463631 79.3938012,6.45778931 94.6545392,27.63815 L94.6545392,27.63815 Z M100.957278,29.2115236 C78.3584437,-5.09103125 57.7375735,0.256719646 54.672484,1.29703775 C52.8131545,1.41955455 43.1260909,2.21054021 32.5460315,5.96772211 C16.9768431,11.5024723 7.13878993,20.8631858 4.09958428,33.0396363 C2.93049311,37.7232172 1.16175739,44.9065707 0.86409211,52.850818 C1.96200245,52.9045534 3.0577558,53.0421162 4.14272418,53.3172416 C4.47274438,53.4010689 4.78119464,53.514988 5.09827287,53.6160106 C5.31828634,46.0221184 7.05035315,38.96773 8.27336919,34.0735062 C8.45455675,33.347003 8.71123913,32.6742353 8.94203757,31.9821229 C12.058895,33.2223368 18.3486918,35.4770758 26.8601932,37.3040808 C25.5767813,41.36648 24.7808503,45.5084076 24.5090689,49.7341625 C24.4076902,51.3096856 24.3839632,52.8551168 24.4206321,54.3812033 C25.8118938,53.7836652 27.2527663,53.3279887 28.7130517,53.0958516 C28.7108948,52.0770277 28.7324647,51.0496061 28.7993315,50.009288 C29.0581709,45.97913 29.8282181,42.0177535 31.098688,38.1359054 C35.8505475,38.9892241 41.1589116,39.6533942 46.8749478,39.9543126 C45.9344981,48.743281 44.9918914,58.1018451 44.2304722,66.7296072 C44.5993183,69.5711372 44.2585131,72.5480805 43.2123707,75.6582877 C43.3094354,75.664736 43.3957152,75.6776325 43.49278,75.6862302 C43.0484391,81.5369448 42.7443028,86.6998458 42.658023,90.66982 C41.413437,89.0405615 39.9747215,86.9900171 38.5014941,84.6127613 C37.6516381,85.8250328 36.7155024,87.0523502 35.6823019,88.2947136 C36.9312019,90.2119941 38.1434329,91.9121834 39.2197733,93.3093048 C36.9980687,92.7526056 34.9230397,92.1056309 32.9170346,91.4135185 C32.6970211,91.6499544 32.4942636,91.8820915 32.2699361,92.116378 C31.3790973,93.0449264 30.4796305,93.9390841 29.5844776,94.7967017 C34.0386719,96.471098 38.9889749,97.814484 44.4440147,98.8139631 C48.3395473,100.056327 52.4119534,100.662462 56.5425984,100.662462 C71.615678,100.662462 87.4242927,92.6816748 97.9568983,78.9425978 C110.001557,63.228206 111.121037,44.6378935 100.957278,29.2115236 L100.957278,29.2115236 Z" id="Fill-1" fill="#51924B" mask="url(#mask-2)"></path>
                        </g>
                        <path d="M26.8047959,101 C26.8047959,101 59.2207988,79.7528911 51.9323765,63.4794941 C44.6439541,47.2039942 27.342042,67.1829643 27.342042,67.1829643 C27.342042,67.1829643 18.6943223,49.8412182 3.53923683,60.4195571 C-11.6158487,70.995793 26.8047959,101 26.8047959,101" id="Fill-4" fill="#A32121"></path>
                    </g>
                </g>
            </g>
        </g>
    </g>
</svg>