<?xml version="1.0" encoding="UTF-8"?>
<svg width="119px" height="119px" viewBox="0 0 119 119" version="1.1" xmlns="http://www.w3.org/2000/svg" xmlns:xlink="http://www.w3.org/1999/xlink">
    <title>4EE9A1B4-9CD0-465E-85AD-6194F0D9A56A</title>
    <defs>
        <polygon id="path-1" points="0.252217179 0.581 116.988879 0.581 116.988879 6 0.252217179 6"></polygon>
        <polygon id="path-3" points="0 0.970140476 12.2279144 0.970140476 12.2279144 12.8460142 0 12.8460142"></polygon>
    </defs>
    <g id="Page-1" stroke="none" stroke-width="1" fill="none" fill-rule="evenodd">
        <g id="APG-Benefits---Revised" transform="translate(-160.000000, -1327.000000)">
            <g id="Icons" transform="translate(0.000000, 921.000000)">
                <g id="4" transform="translate(55.000000, 375.000000)">
                    <g id="Group-49" transform="translate(105.000000, 31.000000)">
                        <path d="M18,21.1563579 C17.8030233,19.8239852 17.5881395,18.4605821 17.3502326,17.0545119 C14.6411628,16.8663894 10.3332558,17.240695 7.62674419,17.0545119 C7.40418605,18.7010685 7.20976744,20.3495646 7,22 C10.6172093,21.5267847 14.2932558,21.2649647 18,21.1563579" id="Fill-1" fill="#97A8B2"></path>
                        <path d="M17.3650386,29.513528 C17.8920308,29.5028128 18.4498715,29.4856684 19,29.468524 C18.7506427,27.0597375 18.4730077,24.5866595 18.1388175,22 C14.2982005,22.1242968 10.4935733,22.4286097 6.75578406,22.9858023 C6.48843188,25.3217252 6.24935733,27.6619341 6,30 C9.92030848,29.5928208 13.9717224,29.5842486 17.3650386,29.513528" id="Fill-3" fill="#97A8B2"></path>
                        <path d="M21,40.852067 C20.6235294,37.268876 20.2815244,33.7082337 19.8838442,30 C19.2661143,30.0184489 18.6483844,30.0389477 18.0598177,30.0532969 C14.5045568,30.1414417 10.254681,30.1311923 6.18773819,30.5411684 C5.75824358,34.3600957 5.36851698,38.1790229 5,42 C10.3156587,41.4936795 15.6551781,41.1554493 21,40.852067" id="Fill-5" fill="#97A8B2"></path>
                        <path d="M23,54.1721889 C22.7985096,52.7666549 22.5942964,51.3591822 22.392806,49.9536482 C22.1014617,47.9316179 21.8591287,45.9619316 21.627687,44 C16.0485813,44.2908001 10.477644,44.6203736 4.93121238,45.1127952 C4.59357982,48.4065915 4.28862138,51.7042651 4,55 C10.3360562,54.9224533 16.6693895,54.5676771 23,54.1721889" id="Fill-7" fill="#97A8B2"></path>
                        <path d="M26,77.7119632 C25.4524404,73.8079755 24.9048808,69.9039877 24.3573212,66 C17.1464245,66.1814417 9.93552781,66.3648773 2.71918275,66.4805215 C2.43859251,70.6516871 2.20703746,74.8248466 2,79 C10.0036322,78.6111963 17.9936436,78.0289877 26,77.7119632" id="Fill-9" fill="#97A8B2"></path>
                        <path d="M29,92.8457359 C28.3737497,87.8971573 27.7448459,82.9485786 27.1185956,78 C19.2453562,78.3415035 11.3880384,78.9794062 3.51745254,79.3982312 C3.29454991,84.5981049 3.12206573,89.8001263 3,95 C11.6878955,94.5339229 20.3253725,93.5287429 29,92.8457359" id="Fill-11" fill="#97A8B2"></path>
                        <path d="M1.18457507,97.0641504 C1.07871584,101.642514 1.00542868,106.220877 1,110.797194 C10.6766192,111.249303 20.437383,110.944488 30,109.892978 C29.3241295,104.92797 28.6482591,99.9629621 27.9723886,95 C19.036784,95.6525907 10.1337514,96.6181793 1.18457507,97.0641504" id="Fill-13" fill="#97A8B2"></path>
                        <path d="M24,65.4990392 C23.5666029,62.0007686 23.1357553,58.5003843 22.7023582,55 C16.6883365,55.4396618 10.6717655,55.8349347 4.652645,55.9152575 C4.40535373,59.2761337 4.20395156,62.63701 4,66 C10.6692161,65.8795158 17.3333333,65.6871637 24,65.4990392" id="Fill-15" fill="#97A8B2"></path>
                        <path d="M118.369547,110.290804 C119.513083,108.436752 118.751592,103.543945 118.751592,101.416816 C118.748993,93.721372 118.746394,86.0259282 118.741196,78.3304845 C118.738597,74.1850467 119.507885,69.5242523 117.563874,66.0132575 C116.396948,63.9005009 114.200839,61.8821921 112.722039,59.9911826 C106.936788,52.5872952 101.151536,45.1813545 95.3662839,37.7754139 C93.796521,36.9849267 92.0760193,35.9562668 90.3971008,36.0014375 C88.1334196,47.3310689 89.2821533,60.9828847 89.3601217,72.5855935 C89.4432879,84.9356719 89.913697,97.2836972 90.766151,109.596818 C90.9116919,111.693149 110.385588,110.631637 112.39977,110.631637 C113.462739,110.631637 117.119455,111.342049 117.914732,110.789735 C118.094059,110.666542 118.244798,110.498178 118.369547,110.290804" id="Fill-17" fill="#527597"></path>
                        <path d="M84.7520351,101.651713 C84.7494407,93.3408994 84.7442521,85.0300856 84.7416578,76.7172188 C84.7390635,72.2394804 85.5069798,67.207414 83.5664346,63.4133469 C82.4015886,61.1323898 80.2068009,58.952033 78.7332319,56.9112848 C72.958294,48.9145902 67.1833561,40.9158425 61.4084182,32.9170948 C59.8414539,32.0630191 58.1240195,30.95231 56.4480942,31.0015836 C54.2143918,43.0920931 55.3040027,57.625752 55.4051809,70.0591236 C51.0259827,73.4980102 46.6467845,76.9348438 42.2675863,80.3716774 C40.7940172,81.529607 38.5992295,82.7635 37.4317892,84.056932 C35.4938384,86.2064928 36.2617547,89.0582024 36.2591603,91.5957928 C36.256566,96.3055277 36.2513774,101.015263 36.2487831,105.724997 C36.2461888,107.028695 35.4886498,110.022066 36.6301469,111.157412 C36.7572682,111.282649 36.905144,111.387355 37.0815572,111.461266 C37.8780109,111.800022 41.5282075,111.364772 42.5892809,111.364772 C43.9279458,111.364772 52.9665278,111.652201 58.9178789,111.467425 C64.0234844,112.335872 76.8004696,111.602927 78.4115372,111.602927 C79.4700164,111.602927 83.1228073,112.368721 83.9166667,111.773332 C84.0956742,111.639883 84.24355,111.45716 84.3706712,111.235428 C85.5121684,109.231635 84.7520351,103.949095 84.7520351,101.651713" id="Fill-19" fill="#527597"></path>
                        <path d="M52.9468354,98.2926744 C50.1012658,98.1945321 47.2556962,98.0981423 44.4126582,98 C44.2759494,99.6666667 44.1392405,101.333333 44,103 C47,102.984227 50,102.968454 53,102.954434 C52.9822785,101.39993 52.964557,99.8471784 52.9468354,98.2926744" id="Fill-21" fill="#E3E5E3"></path>
                        <path d="M64.9468354,98.2926744 C62.1012658,98.1945321 59.2556962,98.0981423 56.4126582,98 C56.2759494,99.6666667 56.1392405,101.333333 56,103 C59,102.984227 62,102.970207 65,102.954434 C64.9822785,101.39993 64.964557,99.8471784 64.9468354,98.2926744" id="Fill-23" fill="#E3E5E3"></path>
                        <path d="M52.9468354,90.2926744 L44.4126582,90 C44.2759494,91.6666667 44.1392405,93.3333333 44,95 C47,94.9842271 50,94.9684543 53,94.9544339 C52.9848101,93.3999299 52.964557,91.8471784 52.9468354,90.2926744" id="Fill-25" fill="#E3E5E3"></path>
                        <path d="M64.9468354,89.2926744 L56.4126582,89 C56.2759494,90.6666667 56.1392405,92.3333333 56,94 C59,93.9842271 62,93.9684543 65,93.9544339 C64.9848101,92.3999299 64.964557,90.8471784 64.9468354,89.2926744" id="Fill-27" fill="#E3E5E3"></path>
                        <path d="M76.9468354,98.2926744 C74.1012658,98.1945321 71.2556962,98.0981423 68.4126582,98 C68.2759494,99.6666667 68.1392405,101.333333 68,103 C71,102.984227 74,102.968454 77,102.954434 C76.9822785,101.39993 76.964557,99.8471784 76.9468354,98.2926744" id="Fill-29" fill="#E3E5E3"></path>
                        <path d="M76.9468354,90.2926744 L68.4126582,90 C68.2759494,91.6666667 68.1392405,93.3333333 68,95 C71,94.9842271 74,94.9684543 77,94.9544339 C76.9822785,93.3999299 76.964557,91.8471784 76.9468354,90.2926744" id="Fill-31" fill="#E3E5E3"></path>
                        <path d="M102.945262,98.2913009 L94.4119718,98 C94.2736876,99.6660016 94.1354033,101.332003 94,103 C96.9990397,102.986034 100.00096,102.970072 103,102.95411 C102.982714,101.401836 102.962548,99.8455706 102.945262,98.2913009" id="Fill-33" fill="#E3E5E3"></path>
                        <path d="M113.945262,98.2931791 C111.101793,98.1954527 108.255442,98.0977264 105.411972,98 C105.273688,99.6673315 105.135403,101.332669 105,103 C107.99904,102.986039 111.00096,102.970084 114,102.954128 C113.982714,101.400479 113.962548,99.8468289 113.945262,98.2931791" id="Fill-35" fill="#E3E5E3"></path>
                        <path d="M102.945262,91.2913009 C100.101793,91.1935355 97.2554417,91.0957702 94.4119718,91 C94.2736876,92.6660016 94.1354033,94.3339984 94,96 C96.9990397,95.9860335 100.00096,95.9700718 103,95.9541101 C102.982714,94.4018356 102.962548,92.8455706 102.945262,91.2913009" id="Fill-37" fill="#E3E5E3"></path>
                        <path d="M113.945262,91.2931791 C111.101793,91.1954527 108.255442,91.0977264 105.411972,91 C105.273688,92.6673315 105.135403,94.3326685 105,96 C107.99904,95.9860391 111.00096,95.9700838 114,95.9541284 C113.982714,94.4004787 113.962548,92.8468289 113.945262,91.2931791" id="Fill-39" fill="#E3E5E3"></path>
                        <g id="Group-43" transform="translate(1.000000, 113.000000)">
                            <mask id="mask-2" fill="white">
                                <use xlink:href="#path-1"></use>
                            </mask>
                            <g id="Clip-42"></g>
                            <path d="M116.988879,2.943 C92.5399796,3.935 68.0700581,4.591 43.6027644,5.247 C37.9320072,5.399 32.2559945,5.551 26.5826095,5.703 C17.8084399,5.939 9.02113128,6.173 0.252217179,5.819 C0.265356098,4.913 0.275867232,4.007 0.286378367,3.103 C39.0777209,2.261 77.8690634,1.421 116.660406,0.581 C116.768145,1.369 116.878512,2.155 116.988879,2.943" id="Fill-41" fill="#6492A2" mask="url(#mask-2)"></path>
                        </g>
                        <g id="Group-46">
                            <mask id="mask-4" fill="white">
                                <use xlink:href="#path-3"></use>
                            </mask>
                            <g id="Clip-45"></g>
                            <path d="M0.01066,0.970140476 C4.53206,1.89561667 8.56206,4.1891881 11.05286,7.25130714 C13.71006,10.5186405 11.70806,14.4096643 6.58606,12.196569 C2.08286,10.2510571 -0.17914,4.66399762 0.01066,0.970140476" id="Fill-44" fill="#51924B" mask="url(#mask-4)"></path>
                        </g>
                        <path d="M25.9882719,1 C21.1815313,1.93514924 16.8972024,4.25269301 14.2492108,7.34681724 C11.4243178,10.6483006 13.5526618,14.5799933 18.9979056,12.3437669 C23.7852976,10.3779205 26.1900499,4.73246523 25.9882719,1" id="Fill-47" fill="#51924B"></path>
                    </g>
                </g>
            </g>
        </g>
    </g>
</svg>