<?xml version="1.0" encoding="UTF-8"?>
<svg width="160px" height="115px" viewBox="0 0 160 115" version="1.1" xmlns="http://www.w3.org/2000/svg" xmlns:xlink="http://www.w3.org/1999/xlink">
    <title>DC7F4751-C6DC-42B5-A5F6-D1391E0B2AA4</title>
    <defs>
        <polygon id="path-1" points="0.243898232 0.3266 54.56638 0.3266 54.56638 114.999173 0.243898232 114.999173"></polygon>
    </defs>
    <g id="Page-1" stroke="none" stroke-width="1" fill="none" fill-rule="evenodd">
        <g id="APG-Benefits---Revised" transform="translate(-842.000000, -1004.000000)">
            <g id="Icons" transform="translate(0.000000, 921.000000)">
                <g id="3" transform="translate(775.000000, 43.000000)">
                    <g id="Group-10" transform="translate(67.000000, 40.000000)">
                        <g id="Group-3" transform="translate(105.000000, 0.000000)">
                            <mask id="mask-2" fill="white">
                                <use xlink:href="#path-1"></use>
                            </mask>
                            <g id="Clip-2"></g>
                            <path d="M22.115038,0.8924 C24.695308,-0.2921 42.322918,0.6394 45.108778,1.357 C47.894638,2.0746 23.738968,40.5559 23.738968,49.3419 C23.738968,53.6452 52.218958,49.2844 54.448108,52.9644 C56.677258,56.6421 26.959108,101.8003 20.306308,113.4521 C13.653508,125.1062 33.089848,67.114 26.090548,66.4907 C19.527838,65.9065 0.204688,67.6062 0.243898232,62.744 C0.315568,53.8154 17.141608,3.174 22.115038,0.8924" id="Fill-1" fill="#F9CA48" mask="url(#mask-2)"></path>
                        </g>
                        <path d="M46.2636274,42.9524616 C48.5950557,41.4318543 49.4614806,39.1463632 48.767409,36.3272855 C47.3024057,30.396001 41.0743945,27.0982984 36.5885496,24.5838002 C28.1362488,19.8410626 19.0294712,15.7738961 9.29849494,16.0097735 C7.67278374,16.0509948 6.13557831,16.3212232 4.55644909,16.3303834 C3.14501501,16.3418338 1.70563174,16.9349623 0.787966676,18.2975546 C-0.323013615,19.9532761 -0.269444335,22.4700644 1.01388929,23.741054 C2.38572869,25.1013563 4.69153684,24.0135724 6.47329768,23.9883817 C8.37151348,23.9609008 10.2487674,24.2036484 12.0817684,24.6204413 C15.8199725,25.4654776 19.3578741,27.022726 22.8142573,28.6876078 C25.3390007,29.9059257 27.8520987,31.1769153 30.136945,32.8624077 C31.6368848,33.9685121 33.027357,35.2440818 34.4178292,36.5173614 C36.8261177,38.7272801 39.2344062,40.939489 41.6450238,43.1494077 C42.2901843,43.7425361 42.9213702,44.092917 43.787795,43.9784135 C44.6542199,43.8662 45.4903665,43.4585673 46.2636274,42.9524616" id="Fill-4" fill="#999999"></path>
                        <path d="M122.260972,58.557784 C120.326715,60.0625528 117.837849,61.4425021 115.786711,61.3153711 C113.185548,61.158191 111.198581,57.75108 109.669968,55.9828032 C107.655499,53.6528386 105.61582,51.6950211 103.855738,49.0668764 C100.193484,43.6048661 96.53123,38.1428557 92.8712676,32.6808453 C91.4343256,30.5357985 88.9660855,26.622475 91.136395,24.4335102 C93.5565079,21.9949063 97.6931592,21.5395461 100.78247,22.6374958 C104.126168,23.8279043 106.77775,26.4144424 109.188695,29.0333412 C113.879956,34.1255159 118.122029,39.6314442 121.853036,45.4748476 C123.15018,47.5020093 124.387738,49.5777119 125.309031,51.8059718 C125.584043,52.471676 125.833847,53.1743637 125.79947,53.8932318 C125.746759,55.0119846 125.027142,55.9804918 124.254815,56.7802614 C123.720831,57.3373263 123.035591,57.9568011 122.260972,58.557784 M132.152266,65.0460883 C136.935198,56.1076228 131.526612,44.8738647 126.207406,37.6297087 C122.398478,32.4427636 118.048692,27.6557033 113.199299,23.4418883 C108.512622,19.3690731 102.845066,15.6799624 96.6664446,16.0220604 C93.4258768,16.2023553 90.1738501,17.462108 87.3480933,19.0223522 C86.4245086,19.5331877 85.2442452,20.7443995 84.1121091,20.5987767 C82.8287159,20.4369736 81.8638792,18.7334181 80.7959127,18.0815827 C78.6393538,16.7663547 76.0588168,16.1515029 73.5493247,16.2000438 C69.2155809,16.2809454 65.0972639,18.058468 61.2447925,20.0671379 C53.8813241,23.9088058 46.9922528,28.7374726 41.1046865,34.624794 C39.6264926,36.1064481 38.1803834,37.7036759 37.4195146,39.6568704 C36.4111343,42.2480315 37.456183,44.2867506 38.0955878,46.7207315 C38.7899952,49.3650564 39.9312984,51.6002507 41.3613651,53.9209694 C48.0579275,64.7918263 55.6047378,75.4315359 61.7627333,86.5751465 C64.1782627,90.9461417 66.6029591,95.312514 69.2499576,99.5471322 C70.5356425,101.604343 72.0734226,103.576029 73.1390973,105.734945 C74.1085175,107.699697 75.1512745,108.957138 77.4063796,109.602039 C79.2695915,110.131366 81.2473921,110.04353 83.1747737,109.847055 C93.666513,108.77222 103.59906,104.64393 113.119087,100.067214 C116.483411,98.4491826 119.879819,96.7340698 122.726202,94.2700397 C125.013392,92.2914189 128.249376,90.2526999 128.51293,86.9542281 C128.698564,84.6311979 127.807064,82.363643 126.814726,80.2602027 C125.529041,77.5280418 124.037096,74.8952742 122.359518,72.3919491 C125.464871,70.7716066 128.700855,69.0356905 131.146178,66.4630212 C131.535779,66.051579 131.868086,65.5731041 132.152266,65.0460883" id="Fill-6" fill="#ACBCB7"></path>
                        <path d="M98.9771565,66.999038 C99.0204389,67.9146204 99.0022147,68.8278966 98.9224839,69.7227227 C98.6468431,72.7231578 97.5055534,75.7189803 95.3550993,77.8061392 C93.4415596,79.6603666 90.8673931,80.7788993 88.3046168,81.3462375 C84.9445323,82.088851 81.5571115,82.3310075 78.1583005,81.3646875 C75.4246724,80.5828678 72.85734,78.989247 71.2239973,76.636869 C69.6635512,74.3859661 69.8867975,71.9690131 69.2967894,69.4367473 C68.6976693,66.8698878 69.0780992,63.9916842 69.7933986,61.4432747 C71.0349213,57.0014315 75.0715788,54.6605848 79.0239494,53.0000827 C81.8304743,51.8169749 84.6802816,51.7500936 87.5938735,52.4511945 C88.1109848,52.5757321 88.6372082,52.6518385 89.1520415,52.7879074 C91.2295989,53.3367956 92.5690766,54.7735912 93.970061,56.3141681 C95.4052158,57.8939514 97.2914192,58.9432965 97.9360998,61.0627429 C98.5101617,62.9515641 98.8837575,64.9833729 98.9771565,66.999038" id="Fill-8" fill="#F2F2F2"></path>
                    </g>
                </g>
            </g>
        </g>
    </g>
</svg>