<?xml version="1.0" encoding="UTF-8"?>
<svg width="129px" height="86px" viewBox="0 0 129 86" version="1.1" xmlns="http://www.w3.org/2000/svg" xmlns:xlink="http://www.w3.org/1999/xlink">
    <title>CD0D61FD-4BFC-42E8-A84C-DD9870291E88</title>
    <defs>
        <polygon id="path-1" points="0 0.306049331 54.2367312 0.306049331 54.2367312 9.11969395 0 9.11969395"></polygon>
        <polygon id="path-3" points="0.648685491 0.186240607 54.885902 0.186240607 54.885902 9 0.648685491 9"></polygon>
    </defs>
    <g id="Page-1" stroke="none" stroke-width="1" fill="none" fill-rule="evenodd">
        <g id="APG-Benefits---Revised" transform="translate(-874.000000, -1353.000000)">
            <g id="Icons" transform="translate(0.000000, 921.000000)">
                <g id="6" transform="translate(775.000000, 375.000000)">
                    <g id="Group-17" transform="translate(99.000000, 57.000000)">
                        <path d="M124.635598,75 C125.564139,75.0029067 126.589782,74.9662064 127.269498,74.2811338 C128.040248,73.5073688 128.064523,72.2289745 128.031145,71.1004398 C127.903698,66.5159587 129.320785,29.4792234 128.932375,23.2799284 C98.7517654,21.7843906 65.445675,20.8913496 35.2225827,21.0106256 C35.2165138,36.3758244 32.0060689,54.4843719 32,69.8465123 C61.5403417,74.9784398 94.6734686,74.8744556 124.635598,75" id="Fill-1" fill="#5A9B73"></path>
                        <path d="M119.991777,79 L119.988731,79 L116.062507,78.9847111 C87.573782,78.8776892 55.286763,78.7553784 26.8376349,73.8354264 C26.3502837,73.7498089 26,73.3308944 26,72.8385934 C26.0030459,65.1085508 26.8254511,56.5773725 27.6204428,48.327509 C28.4123886,40.1235121 29.2317478,31.6412581 29.2347938,24.0121219 C29.2347938,23.4494922 29.6855937,23 30.2430017,23 C30.7973637,23 31.2512095,23.4494922 31.2512095,24.0121219 C31.2451176,31.7391067 30.4257584,40.270285 29.6277207,48.5201485 C28.8662344,56.4183685 28.0773346,64.5764989 28.0194617,71.9854756 C56.1000304,76.7341924 87.9453873,76.8534455 116.068599,76.9604674 L119.994823,76.9757563 C120.555277,76.9757563 121.00303,77.431364 121,77.9909359 C121,78.5505078 120.549185,79 119.991777,79" id="Fill-3" fill="#5A9B73"></path>
                        <path d="M63.0022924,44.327108 C62.8670567,53.3474759 68.7272695,62.3958187 77.4304369,62.9739677 C79.8526582,63.1356008 82.2568481,62.5170435 84.6129542,61.8798363 C86.3589971,61.4104787 88.1441081,60.9100379 89.649732,59.8283398 C95.3055887,55.7657551 96.7210555,44.6348325 92.7210846,38.943484 C90.8157641,36.2330219 88.0719824,34.3431585 85.1659179,33.1029356 C77.6738611,29.9013578 63.1645752,33.6779763 63.0022924,44.327108" id="Fill-5" fill="#FFFFFF"></path>
                        <path d="M80.5539881,54.6021379 C80.7593504,54.574445 80.9764475,54.4913664 81.202346,54.352902 C81.4311781,54.2175146 81.6042691,54.0698193 81.7274865,53.909816 C82.0179273,53.5651936 82.217422,53.1867243 82.3259706,52.7744082 C82.437453,52.3651691 82.4843929,51.937468 82.4697242,51.4882281 C82.4697242,51.1312977 82.437453,50.7866753 82.3670431,50.4635918 C82.2995669,50.1374313 82.1675483,49.8266557 81.9739211,49.5220341 C81.89471,49.3774157 81.8066976,49.2420283 81.7186852,49.1127949 C81.6277391,48.9804845 81.501588,48.8666361 81.3372983,48.7681725 C81.1994122,49.758962 81.0556587,50.7343665 80.9031039,51.6851552 C80.7534829,52.6359439 80.636133,53.6082714 80.5539881,54.6021379 M79.1340552,44.4419303 C79.2132663,43.8665339 79.3012787,43.2972915 79.3892911,42.7342031 C79.4773034,42.1711146 79.5653158,41.5957183 79.6474607,41.008014 C79.5770508,41.0357068 79.5301109,41.0480148 79.5037071,41.0480148 C79.4743697,41.0480148 79.447966,41.0633997 79.4215623,41.0910926 C79.2132663,41.223403 79.0255066,41.3649443 78.8524156,41.5249476 C78.6822583,41.6818739 78.5209023,41.86957 78.3683475,42.088036 C78.0661717,42.5495839 77.9986955,43.0049778 78.1629853,43.4572948 C78.3272751,43.9126887 78.6499871,44.2419262 79.1340552,44.4419303 M78.2040578,62.903846 C78.1483166,62.9746166 78.0984429,63.0053865 78.0485692,62.9992325 C78.0016293,62.9930786 77.9634906,62.9530777 77.9370869,62.8792301 C77.8256045,61.7715151 77.7199897,60.6730311 77.6173086,59.5837781 C77.5146275,58.4976021 77.50876,57.4052721 77.6055736,56.3098651 C77.3738077,56.1806317 77.1449755,56.0575522 76.9278783,55.9437037 C76.7049136,55.8267783 76.4936839,55.7129298 76.2883217,55.5960043 C75.546084,55.1344564 74.9945398,54.565214 74.6395566,53.8882771 C74.2816396,53.2113402 74.0821449,52.4267088 74.0410724,51.5313059 C74.0264037,51.3159169 74.0205362,51.0974509 74.0205362,50.8728309 C74.0205362,50.6512879 74.0146687,50.423591 74,50.192817 C74.0146687,50.0912765 74.0557412,50.0205058 74.1232173,49.977428 C74.1936272,49.9343502 74.2963083,49.9558891 74.4341944,50.0420447 C74.5838154,50.1282003 74.6982315,50.2789726 74.7745089,50.4974386 C74.8478525,50.7097506 74.9329312,50.9436016 75.0297448,51.1866835 C75.1148234,51.4020725 75.1881671,51.6205385 75.258577,51.8359275 C75.3260531,52.0513165 75.4023305,52.2667055 75.4844754,52.4851715 C75.8687961,53.5928865 76.5816963,54.2852083 77.6261098,54.5590601 C77.6554473,54.574445 77.6759835,54.577522 77.6906522,54.568291 C77.7023872,54.5621371 77.7229234,54.5590601 77.7493271,54.5590601 C77.7375922,53.9682788 77.7786646,53.3898054 77.8725445,52.829794 C77.9693581,52.2667055 78.0661717,51.7066941 78.1629853,51.1436057 C78.2597989,50.5374394 78.350745,49.9435811 78.4299562,49.3589538 C78.5121011,48.7774035 78.6030472,48.1896992 78.6998608,47.5989179 C78.7262645,47.4235297 78.6646558,47.3096812 78.5121011,47.2512184 C77.8813457,46.9773667 77.2769941,46.5742815 76.7019799,46.041963 C76.3704666,45.7250334 76.0917608,45.374257 75.8658623,44.9927108 C75.6399639,44.6111645 75.4698067,44.1896174 75.3583243,43.7280695 C75.3172519,43.5711432 75.2967156,43.401909 75.2967156,43.2203668 C75.2967156,43.0419017 75.3055169,42.8665135 75.3172519,42.6911253 C75.4169992,41.654181 75.7514463,40.8203178 76.3293942,40.1833817 C76.9073421,39.5495226 77.6055736,39.1033596 78.4299562,38.8448928 C78.5561072,38.8172 78.6822583,38.7864301 78.8113431,38.7587372 C78.9433617,38.7279674 79.078314,38.7064285 79.2132663,38.6941205 C79.3394174,38.6633507 79.4626347,38.6448887 79.5946533,38.6387348 C79.7266718,38.6325808 79.8674916,38.6202729 80.0171127,38.6079649 C80.0435164,38.4479616 80.0699201,38.2971893 80.0904563,38.152571 C80.1109925,38.0079527 80.1344625,37.8571803 80.1608662,37.6971771 C80.2312761,37.3525546 80.2928848,37.0017782 80.3486259,36.6510018 C80.4014334,36.2971485 80.4718433,35.9494491 80.5539881,35.6017496 C80.6214643,35.3555908 80.7094767,35.1186628 80.8121578,34.8878889 C80.9148389,34.6601919 81.0204537,34.420187 81.1319361,34.1740282 C81.214081,34.0171019 81.351967,33.9647931 81.5426605,34.0232558 C81.7626914,34.0540257 81.9357824,34.0755646 82.0589998,34.0878726 C82.1822171,34.1032575 82.2672957,34.1494123 82.3171694,34.2294139 C82.3641093,34.3094155 82.390513,34.4417259 82.3963805,34.6294221 C82.4051818,34.8171182 82.4081155,35.09097 82.4081155,35.4509773 C82.3817118,35.5648258 82.3670431,35.7032902 82.3670431,35.8602165 L82.3670431,36.2725326 L82.3670431,38.5402712 L82.3670431,38.9525873 C82.6134777,39.026435 82.8599124,39.0972057 83.1004795,39.1679764 C83.3381129,39.241824 83.5757463,39.2910558 83.810446,39.3187487 C84.0304769,39.3495185 84.1977004,39.3987503 84.3150503,39.472598 C84.4324001,39.5433686 84.5438825,39.6664481 84.6553648,39.8387593 C84.6817685,39.8541442 84.699371,39.903376 84.7081722,39.9895316 C84.7140397,40.0756872 84.711106,40.1341499 84.6964372,40.1618428 C84.6817685,40.3064612 84.675901,40.4264636 84.675901,40.5187732 C84.675901,40.6141598 84.6612323,40.7310852 84.6348286,40.8757036 C84.6054911,40.992629 84.5673524,41.1064775 84.5116113,41.223403 C84.4558701,41.3372514 84.3590565,41.4080221 84.2211704,41.438792 C84.0304769,41.4818698 83.8691209,41.4726388 83.7371024,41.4172531 C83.6080175,41.3587904 83.4261253,41.2787887 83.1914256,41.1772482 C82.9713947,41.0633997 82.8100387,40.998783 82.7073576,40.9833981 C82.6046765,40.9710901 82.4697242,40.9341663 82.3054344,40.8757036 C82.2379582,41.1495553 82.1998195,41.4203301 82.1910183,41.6880278 C82.1851508,41.9526486 82.1616809,42.2172694 82.1206084,42.4757362 C82.0648672,42.7342031 82.0237948,42.9957469 81.9973911,43.2542137 C81.9680536,43.5126805 81.9416499,43.7803783 81.9152462,44.05423 C81.8859087,44.3126969 81.8536375,44.5773177 81.8096314,44.8419384 C81.7714927,45.1096362 81.7362877,45.386565 81.709884,45.6758016 C81.7626914,45.7034945 81.8184326,45.7373414 81.8741738,45.7711882 C81.9269812,45.808112 81.9827224,45.8419589 82.0355298,45.8696518 C82.4491879,46.0850408 82.8276412,46.3435076 83.1708894,46.6481292 C83.5141377,46.9496738 83.8163135,47.3035272 84.0774169,47.7066124 C84.2710441,47.995849 84.4177314,48.2943167 84.5204125,48.6020153 C84.6230936,48.9127909 84.7169735,49.2327974 84.7991183,49.5651119 C84.9076669,49.983582 84.9751431,50.408206 84.9956793,50.842061 C85.0162155,51.2728391 84.9634081,51.6974631 84.8401908,52.1159332 C84.675901,52.7067145 84.4588038,53.266726 84.191833,53.7898136 C83.9248621,54.3190552 83.5493426,54.78368 83.0682083,55.1867652 C82.72496,55.4760019 82.3641093,55.7221608 81.9856561,55.9313958 C81.6072029,56.1406308 81.1994122,56.2883262 80.7593504,56.3744818 C80.5803919,56.4021747 80.4777108,56.4390985 80.451307,56.4821763 C80.4249033,56.5252541 80.4014334,56.6483335 80.3867646,56.8483376 C80.3192885,57.3991181 80.2283424,57.9345137 80.1109925,58.4606783 C79.9936427,58.9868428 79.8176179,59.5006995 79.585852,60.0053252 C79.5154421,60.1930213 79.4450322,60.3714865 79.3687548,60.5468747 C79.2924774,60.7191859 79.2220675,60.8914972 79.1516576,61.0668853 C79.0401753,61.3838149 78.9257592,61.6699746 78.8025419,61.9284414 C78.6910596,62.1469074 78.582511,62.3561425 78.4710286,62.5561465 C78.36248,62.7592276 78.2744677,62.8730761 78.2040578,62.903846" id="Fill-7" fill="#5A9B73"></path>
                        <path d="M2,8.37972301 C2.3802151,16.1770215 7.39303812,32.2385961 16.864087,37.3169784 C26.3351359,42.3953608 22.1159077,41.8485053 17.3145057,46.4568378 C12.5100396,51.0651702 4.24010726,61.8578847 5.07659912,78.8779925 C5.10417578,79.4217757 56.5928542,78.0730704 56.8410441,76.3157597 C58.1616595,67.0069282 51.1602533,53.4799364 39.3114839,44.6257937 C32.3499107,39.4245225 36.578331,38.585806 40.5861382,36.6226564 C52.1775254,30.9451908 57.0371448,5.24912919 51.3287773,5.03100145 C45.6142816,4.80672927 1.8746431,5.78676797 2,8.37972301" id="Fill-9" fill="#B3D6E3"></path>
                        <g id="Group-13">
                            <mask id="mask-2" fill="white">
                                <use xlink:href="#path-1"></use>
                            </mask>
                            <g id="Clip-12"></g>
                            <path d="M0.00763888889,6.2928 C0.194027778,9.9798 2.18930556,9.3888 27.26625,8.2548 C48.4748611,7.2948 54.4393056,8.5698 54.2315278,4.4058 C54.0206944,0.2358 49.6084722,-0.2502 26.8873611,0.7458 C4.16625,1.7418 -0.218472222,1.7928 0.00763888889,6.2928" id="Fill-11" fill="#70A6C4" mask="url(#mask-2)"></path>
                        </g>
                        <g id="Group-16" transform="translate(3.000000, 77.000000)">
                            <mask id="mask-4" fill="white">
                                <use xlink:href="#path-3"></use>
                            </mask>
                            <g id="Clip-15"></g>
                            <path d="M54.8777778,3.0144 C54.6913889,-0.6726 52.6961111,-0.0846 27.6191667,1.0524 C6.41055556,2.0124 0.446111111,0.7344 0.653888889,4.9014 C0.864722222,9.0684 5.27388889,9.5574 27.9980556,8.5614 C50.7191667,7.5624 55.1038889,7.5144 54.8777778,3.0144" id="Fill-14" fill="#70A6C4" mask="url(#mask-4)"></path>
                        </g>
                    </g>
                </g>
            </g>
        </g>
    </g>
</svg>